<svg viewBox="0 0 400 400" fill="none" xmlns="http://www.w3.org/2000/svg">
  <path fill-rule="evenodd" clip-rule="evenodd" d="M100 73.2C100 66.4 103.6 60.2 109.3 56.8L180.7 16.6C186.4 13.2 193.6 13.2 199.3 16.6L270.7 56.8C276.4 60.2 280 66.4 280 73.2V153.6C280 160.4 276.4 166.6 270.7 170L199.3 210.2C193.6 213.6 186.4 213.6 180.7 210.2L109.3 170C103.6 166.6 100 160.4 100 153.6V73.2Z" fill="#000000"/>
  <path fill-rule="evenodd" clip-rule="evenodd" d="M20 146.4C20 139.6 23.6 133.4 29.3 130L100.7 89.8C106.4 86.4 113.6 86.4 119.3 89.8L190.7 130C196.4 133.4 200 139.6 200 146.4V226.8C200 233.6 196.4 239.8 190.7 243.2L119.3 283.4C113.6 286.8 106.4 286.8 100.7 283.4L29.3 243.2C23.6 239.8 20 233.6 20 226.8V146.4Z" fill="#000000"/>
  <path fill-rule="evenodd" clip-rule="evenodd" d="M200 146.4C200 139.6 203.6 133.4 209.3 130L280.7 89.8C286.4 86.4 293.6 86.4 299.3 89.8L370.7 130C376.4 133.4 380 139.6 380 146.4V226.8C380 233.6 376.4 239.8 370.7 243.2L299.3 283.4C293.6 286.8 286.4 286.8 280.7 283.4L209.3 243.2C203.6 239.8 200 233.6 200 226.8V146.4Z" fill="#000000"/>
  <path fill-rule="evenodd" clip-rule="evenodd" d="M110 219.6C110 212.8 113.6 206.6 119.3 203.2L190.7 163C196.4 159.6 203.6 159.6 209.3 163L280.7 203.2C286.4 206.6 290 212.8 290 219.6V300C290 306.8 286.4 313 280.7 316.4L209.3 356.6C203.6 360 196.4 360 190.7 356.6L119.3 316.4C113.6 313 110 306.8 110 300V219.6Z" fill="#000000"/>
  <!-- White "L" shaped cutout in the center -->
  <path d="M200 130L290 186.6V300L200 243.4V186.6L110 130V243.4L200 300V356.6L20 226.8V146.4L200 130Z" fill="#ffffff"/>
</svg>
